/* XPM */
static char * C:\Users\denton\Desktop\q\share\pixmaps\sierra32_xpm[] = {
"32 32 168 2",
"  	c None",
". 	c #848688",
"+ 	c #838587",
"@ 	c #808183",
"# 	c #6E6F71",
"$ 	c #5C5D5F",
"% 	c #515254",
"& 	c #404142",
"* 	c #6E7071",
"= 	c #808284",
"- 	c #747678",
"; 	c #4D4E4F",
"> 	c #141414",
", 	c #5F6062",
"' 	c #717274",
") 	c #727375",
"! 	c #727475",
"~ 	c #747577",
"{ 	c #67686A",
"] 	c #555657",
"^ 	c #131313",
"/ 	c #4C4E4F",
"( 	c #757678",
"_ 	c #7D7F80",
": 	c #4C4D4E",
"< 	c #232324",
"[ 	c #5E6061",
"} 	c #7E8082",
"| 	c #858789",
"1 	c #888A8D",
"2 	c #737476",
"3 	c #383839",
"4 	c #4B4D4E",
"5 	c #7D7F81",
"6 	c #717375",
"7 	c #242424",
"8 	c #4F5051",
"9 	c #888A8C",
"0 	c #6F7173",
"a 	c #232425",
"b 	c #6A6B6D",
"c 	c #636466",
"d 	c #77797B",
"e 	c #7C7E80",
"f 	c #828486",
"g 	c #2D2D2E",
"h 	c #696B6C",
"i 	c #191919",
"j 	c #757778",
"k 	c #202021",
"l 	c #101010",
"m 	c #1A1B1B",
"n 	c #727476",
"o 	c #2F2F30",
"p 	c #5E5F61",
"q 	c #222223",
"r 	c #5B5C5E",
"s 	c #5D5E60",
"t 	c #828386",
"u 	c #595A5B",
"v 	c #424344",
"w 	c #757779",
"x 	c #222323",
"y 	c #656769",
"z 	c #393A3B",
"A 	c #4D4E50",
"B 	c #121212",
"C 	c #797B7D",
"D 	c #656668",
"E 	c #3A3B3C",
"F 	c #4B4C4D",
"G 	c #373839",
"H 	c #4F5152",
"I 	c #303132",
"J 	c #616364",
"K 	c #535456",
"L 	c #494A4B",
"M 	c #87898B",
"N 	c #333334",
"O 	c #7B7D7F",
"P 	c #232323",
"Q 	c #2B2B2C",
"R 	c #76787A",
"S 	c #86888A",
"T 	c #696B6D",
"U 	c #111111",
"V 	c #434445",
"W 	c #818385",
"X 	c #7B7C7F",
"Y 	c #626365",
"Z 	c #29292A",
"` 	c #1B1C1C",
" .	c #3E3F40",
"..	c #474849",
"+.	c #343535",
"@.	c #1B1B1C",
"#.	c #7A7B7E",
"$.	c #303031",
"%.	c #616264",
"&.	c #565859",
"*.	c #414243",
"=.	c #0B0B0B",
"-.	c #686A6B",
";.	c #78797B",
">.	c #1D1D1D",
",.	c #2E2E2F",
"'.	c #787A7C",
").	c #515354",
"!.	c #646667",
"~.	c #5C5D5E",
"{.	c #0A0A0A",
"].	c #838487",
"^.	c #1D1D1E",
"/.	c #88898C",
"(.	c #555658",
"_.	c #0D0D0D",
":.	c #828385",
"<.	c #707274",
"[.	c #565759",
"}.	c #898B8D",
"|.	c #545557",
"1.	c #545556",
"2.	c #414142",
"3.	c #0F0F0F",
"4.	c #686A6C",
"5.	c #464849",
"6.	c #666769",
"7.	c #454647",
"8.	c #828485",
"9.	c #86878A",
"0.	c #212222",
"a.	c #424345",
"b.	c #535455",
"c.	c #0C0C0C",
"d.	c #58595B",
"e.	c #3F4041",
"f.	c #464748",
"g.	c #585A5B",
"h.	c #353637",
"i.	c #8A8C8E",
"j.	c #5A5B5D",
"k.	c #808283",
"l.	c #4F5052",
"m.	c #646567",
"n.	c #7F8183",
"o.	c #67696B",
"p.	c #5B5D5E",
"q.	c #2C2C2D",
"r.	c #4A4C4D",
"s.	c #656768",
"t.	c #4E4F51",
"u.	c #505253",
"v.	c #626465",
"w.	c #242425",
"x.	c #4B4B4D",
"y.	c #232424",
"z.	c #696A6C",
"A.	c #141415",
"B.	c #8B8D8F",
"C.	c #19191A",
"D.	c #2F3031",
"E.	c #2C2D2D",
"F.	c #474749",
"G.	c #212122",
"H.	c #464749",
"I.	c #333435",
"J.	c #6A6C6D",
"K.	c #7D7E80",
"                        . . . . . . . +                         ",
"                  . . @ # $ % & & % $ * = . .                   ",
"              . . - ; > & , ' ) ! ~ { ] ^ / ( . .               ",
"            . _ : < [ } . . . . . . . | 1 2 3 4 5 .             ",
"          . 6 7 8 5 . . . . . . . . . . . . 9 0 a ! .           ",
"        + b > c . . . . . . . . 5 d d d d e . . f g h .         ",
"      + - i h . . . . . . . . j k l l l l m f . . + g n .       ",
"    f = o p . . . . . . . . j q ^ r s ^ ^ 8 . . . . t a 5 .     ",
"    + u v . . . . . . . . w x ^ y } z ^ A + . . . . . 0 4 .     ",
"  f 5 B C . . . . . . . w < ^ D } E ^ F f . . . . . . 9 G ( .   ",
"  . p H . . . p I e . 9 g ^ J . K ^ L f . . . . . . . . n ; .   ",
"  M N 6 . . . O P Q R S T U V W X Y f . . . . . . . . . 1 ^ =   ",
"f e q . . . . . . Z ` - 9 T l  .5 . . . . . . . . . . . | ] * + ",
"+ 6 ... . . . . . = +.@.# S #.U $.e . . . . . . . . . . . { $ . ",
"f %.&.. . . . . . . M *.=.-.| ;.>.,.'.. . . . . . . . . . ~ ).. ",
". !.~.. . . . . . . . S V {.c . ].Z ^.- . . . . . . . . . n & . ",
". !.~.. . . . . . . . . /.(._.&.. :.,.` <.. . . . . . . . ) & . ",
"f b [.. . . . . . . . . . }.|._.1.+ | 2.3.4.. . . . . . . <.% . ",
". R 5.. . . . . . . . . . . M 6.3.7.8.M & {.y . . . . . . [ $ . ",
"f 9.0.. . . . . . . . . . . . }.{ l a.= 9.b.c.d.. . . . . e.# . ",
"  M f.6 . . . . . . . . . f % g.S 2 U h.f i.1._.j.. . . } > k.  ",
"  . 6 l.. . . . . . . . f L ^ *.. m.^ 0.n.. S o.p.. . . p ; .   ",
"  f 9 q.C . . . . . . f r.^ E } D ^ < w . . . . . . . _ x - .   ",
"    + ~ *.. . . . . + ; ^ z } s.^ x w . . . . . . . . t.: .     ",
"    f }.K [ . . . . |.^ B F u.^ q j . . . . . . . . v.w._ .     ",
"      + | e.-.. . S x.^ ^ ^ ^ y.j . . . . . . . . z.A.) .       ",
"        + 1 e.[ . . }.B.B.B.B.9 . . . . . . . . p C.b .         ",
"          + | K *.C . . . . . . . . . . . . C v D.- +           ",
"            + }.~ E.l.6 . . . . . . . . 6 l.B u = +             ",
"              f + 9 6 F.G.H.[.p.p.&.H.q I.[ 5 + f               ",
"                  f . M 9.R J.!.!.J 6 K.M . f                   ",
"                        f . f . . f + f                         "};
