/* XPM */
static char * C:\Users\denton\Desktop\q\share\pixmaps\sierra64_xpm[] = {
"64 64 330 2",
"  	c None",
". 	c #848688",
"+ 	c #838587",
"@ 	c #818385",
"# 	c #7C7E80",
"$ 	c #757779",
"% 	c #6E7071",
"& 	c #68696B",
"* 	c #636466",
"= 	c #606263",
"- 	c #6E7072",
"; 	c #767879",
"> 	c #7D7F80",
", 	c #7D7F81",
"' 	c #707173",
") 	c #5D5E60",
"! 	c #48494A",
"~ 	c #333434",
"{ 	c #252526",
"] 	c #1C1C1D",
"^ 	c #171717",
"/ 	c #131314",
"( 	c #121212",
"_ 	c #131313",
": 	c #151616",
"< 	c #1A1B1B",
"[ 	c #232425",
"} 	c #323334",
"| 	c #5D5F60",
"1 	c #707274",
"2 	c #747577",
"3 	c #5A5B5D",
"4 	c #3A3B3C",
"5 	c #212122",
"6 	c #151515",
"7 	c #171718",
"8 	c #252525",
"9 	c #424344",
"0 	c #515253",
"a 	c #5F6062",
"b 	c #616263",
"c 	c #5E6061",
"d 	c #58595B",
"e 	c #4D4E4F",
"f 	c #3D3E3F",
"g 	c #2E2E2F",
"h 	c #1D1D1E",
"i 	c #1D1E1F",
"j 	c #3A3A3C",
"k 	c #5A5C5D",
"l 	c #747678",
"m 	c #707273",
"n 	c #4E4F50",
"o 	c #28292A",
"p 	c #161616",
"q 	c #303132",
"r 	c #4F5051",
"s 	c #77797B",
"t 	c #86888A",
"u 	c #87898B",
"v 	c #888A8C",
"w 	c #898B8D",
"x 	c #787A7C",
"y 	c #666769",
"z 	c #474849",
"A 	c #272728",
"B 	c #121213",
"C 	c #262727",
"D 	c #4E4F51",
"E 	c #717274",
"F 	c #767779",
"G 	c #262728",
"H 	c #222222",
"I 	c #444546",
"J 	c #67696B",
"K 	c #858789",
"L 	c #888A8D",
"M 	c #8A8C8E",
"N 	c #7F8183",
"O 	c #656668",
"P 	c #393A3B",
"Q 	c #525354",
"R 	c #76787A",
"S 	c #626466",
"T 	c #1F1F1F",
"U 	c #464748",
"V 	c #6D6F71",
"W 	c #808284",
"X 	c #6C6E70",
"Y 	c #636566",
"Z 	c #848687",
"` 	c #797A7C",
" .	c #161717",
"..	c #373839",
"+.	c #67686A",
"@.	c #87888B",
"#.	c #19191A",
"$.	c #797B7D",
"%.	c #727476",
"&.	c #3F4041",
"*.	c #1E1E1F",
"=.	c #8B8D8F",
"-.	c #434446",
";.	c #121313",
">.	c #3E3F40",
",.	c #737577",
"'.	c #828486",
").	c #6F7173",
"!.	c #363738",
"~.	c #181818",
"{.	c #343536",
"].	c #818384",
"^.	c #353636",
"/.	c #2D2D2E",
"(.	c #6A6B6D",
"_.	c #646667",
":.	c #686A6B",
"<.	c #7A7C7E",
"[.	c #636567",
"}.	c #1D1D1D",
"|.	c #313132",
"1.	c #3A3B3B",
"2.	c #2E2F30",
"3.	c #6A6C6D",
"4.	c #7B7D7F",
"5.	c #4C4D4F",
"6.	c #1B1B1B",
"7.	c #141414",
"8.	c #141515",
"9.	c #8C8D90",
"0.	c #2A2B2B",
"a.	c #696B6C",
"b.	c #191919",
"c.	c #101010",
"d.	c #242526",
"e.	c #181819",
"f.	c #595A5B",
"g.	c #1A1A1A",
"h.	c #222323",
"i.	c #7C7D7F",
"j.	c #3B3C3D",
"k.	c #383939",
"l.	c #494A4C",
"m.	c #7E8082",
"n.	c #565859",
"o.	c #7C7E7F",
"p.	c #4D4E50",
"q.	c #191A1A",
"r.	c #272828",
"s.	c #868789",
"t.	c #6B6C6E",
"u.	c #7A7B7D",
"v.	c #434445",
"w.	c #414243",
"x.	c #696B6D",
"y.	c #2D2E2E",
"z.	c #47484A",
"A.	c #1C1C1C",
"B.	c #292A2A",
"C.	c #2D2E2F",
"D.	c #131414",
"E.	c #464849",
"F.	c #38393A",
"G.	c #86888B",
"H.	c #646567",
"I.	c #323333",
"J.	c #7D7E80",
"K.	c #4F5152",
"L.	c #454647",
"M.	c #4E5051",
"N.	c #404142",
"O.	c #343435",
"P.	c #626365",
"Q.	c #585A5B",
"R.	c #262627",
"S.	c #626465",
"T.	c #717375",
"U.	c #222223",
"V.	c #2B2C2D",
"W.	c #787A7B",
"X.	c #232323",
"Y.	c #0C0C0C",
"Z.	c #5B5C5E",
"`.	c #575859",
" +	c #595A5C",
".+	c #494A4B",
"++	c #0D0D0D",
"@+	c #171818",
"#+	c #555758",
"$+	c #898B8E",
"%+	c #212121",
"&+	c #0F0F0F",
"*+	c #424243",
"=+	c #1B1C1C",
"-+	c #85878A",
";+	c #4C4D4E",
">+	c #0E0E0E",
",+	c #505152",
"'+	c #8B8D90",
")+	c #686A6C",
"!+	c #111111",
"~+	c #0A0A0A",
"{+	c #353637",
"]+	c #87898C",
"^+	c #535456",
"/+	c #494B4C",
"(+	c #7A7C7D",
"_+	c #292A2B",
":+	c #2F3031",
"<+	c #6C6E6F",
"[+	c #838586",
"}+	c #656669",
"|+	c #8A8B8E",
"1+	c #5A5B5C",
"2+	c #747677",
"3+	c #2F2F30",
"4+	c #67696A",
"5+	c #48494B",
"6+	c #8B8C8F",
"7+	c #606163",
"8+	c #1F2020",
"9+	c #0B0B0B",
"0+	c #797B7C",
"a+	c #353536",
"b+	c #838487",
"c+	c #86878A",
"d+	c #4A4B4C",
"e+	c #181919",
"f+	c #242424",
"g+	c #1E1F1F",
"h+	c #5E5F60",
"i+	c #3D3D3F",
"j+	c #242425",
"k+	c #202021",
"l+	c #8C8E90",
"m+	c #6D6E70",
"n+	c #282929",
"o+	c #313232",
"p+	c #6D6F70",
"q+	c #7F8182",
"r+	c #737476",
"s+	c #2B2C2C",
"t+	c #696A6C",
"u+	c #49494B",
"v+	c #151516",
"w+	c #535455",
"x+	c #303131",
"y+	c #333435",
"z+	c #252626",
"A+	c #111212",
"B+	c #7B7D7E",
"C+	c #5E5F61",
"D+	c #8A8C8F",
"E+	c #1F2021",
"F+	c #575759",
"G+	c #0E0E0F",
"H+	c #2F3030",
"I+	c #1B1B1C",
"J+	c #1E1E1E",
"K+	c #5F6061",
"L+	c #848588",
"M+	c #333334",
"N+	c #545557",
"O+	c #646566",
"P+	c #212222",
"Q+	c #0A0B0B",
"R+	c #828485",
"S+	c #343535",
"T+	c #6F7172",
"U+	c #505153",
"V+	c #555657",
"W+	c #2B2B2C",
"X+	c #6B6D6E",
"Y+	c #58595A",
"Z+	c #161617",
"`+	c #0C0C0D",
" @	c #66686A",
".@	c #818285",
"+@	c #202121",
"@@	c #3C3D3E",
"#@	c #616364",
"$@	c #77787B",
"%@	c #464749",
"&@	c #3D3D3E",
"*@	c #1D1E1E",
"=@	c #5C5E5F",
"-@	c #2C2D2E",
";@	c #6E6F71",
">@	c #838486",
",@	c #828386",
"'@	c #57585A",
")@	c #535556",
"!@	c #7B7C7E",
"~@	c #858689",
"{@	c #141415",
"]@	c #515254",
"^@	c #303031",
"/@	c #444446",
"(@	c #0F0F10",
"_@	c #5F6162",
":@	c #1A1A1B",
"<@	c #444547",
"[@	c #666869",
"}@	c #717374",
"|@	c #555658",
"1@	c #29292A",
"2@	c #2E2F2F",
"3@	c #515354",
"4@	c #7F8083",
"5@	c #1F1F20",
"6@	c #595B5C",
"7@	c #2C2C2D",
"8@	c #252627",
"9@	c #2C2D2D",
"0@	c #7E7F82",
"a@	c #373838",
"b@	c #2A2A2B",
"c@	c #565759",
"d@	c #323233",
"e@	c #424244",
"f@	c #818284",
"g@	c #414142",
"h@	c #545556",
"i@	c #3C3C3E",
"j@	c #727375",
"k@	c #4B4C4D",
"l@	c #5C5D5E",
"m@	c #6A6C6E",
"n@	c #78797B",
"o@	c #828385",
"                                                      . . . . . . . . . .                                                       ",
"                                            + . . . . . . . . . . . . . . . . . . .                                             ",
"                                        . . . . + @ # $ % & * = = * & - ; > @ + . . . .                                         ",
"                                    . . . + , ' ) ! ~ { ] ^ / ( ( _ : < [ } ! | 1 , + . . .                                     ",
"                                . . . @ 2 3 4 5 6 7 8 } 9 0 3 a b c d e f g h ( i j k l @ . . .                                 ",
"                            . . . @ m n o p < q r & s @ t t t t t u v w v + x y z A B C D E @ . . .                             ",
"                          . . + F 0 G 6 H I J # . K K . . . . . . . . . . K t L M N O P : [ Q R + . .                           ",
"                      . . . N S } p T U V W . . . . . . . . . . . . . . . . . . . t M u X 4 / q Y N . .                         ",
"                    . . Z ` D T  ...+.N . . . . . . . . . . . . . . . . . . . . . . . K M @.* o #.r $.. . .                     ",
"                  + . + %.&.^ *.r x + . . . . . . . . . . . . . . . . . . . . . . . . . . t =.# -.;.>.,.+ . .                   ",
"                '.. + ).!.6 A c N . . . . . . . . . . . . . . . . . . . . . . . . . . . . . . w u d ~.{.).+ . .                 ",
"              ].. + 1 ^.6 /.+.@ . . . . . . . . . . . . . . . . , (._._._._._._._._.:.<.. . . . t =.[.}.|.).+ .                 ",
"              + . $ 1.6 2.3.'.. . . . . . . . . . . . . . . . 4.5.6.7.7.7.7.7.7.7./ 8.-., . . . . t 9.& }.{.,.. .               ",
"            + . # U p 0.a.'.. . . . . . . . . . . . . . . . 4.e b._ _ _ _ _ _ _ _ _ c.d.R . . . . . K 9.[.e.>.$.. .             ",
"          @ . @ f.g.h.* '.. . . . . . . . . . . . . . . . i.e #._ _ 8 j.f k.6._ _ _ ^ l.m.. . . . . . t =.d ;.r N . .           ",
"          + . V A g.n.W . . . . . . . . . . . . . . . . o.p.q._ _ r.+.s.K t.{ _ _ 7 ! u.. . . . . . . . t u v.#.Y + .           ",
"        '.. , w.6 9 4.. . . . . . . . . . . . . . . . # n q._ _ A Y @ '.x.y.7._ ^ z.u.. . . . . . . . . . w # o q R . .         ",
"      ].. + * A.B.).. . . . . . . . . . . . . . . . # D g._ _ C * @ '.(.C.D._ ^ E.$.. . . . . . . . . . . . =.* / Q @ .         ",
"      + . # F.^ n.@ . . . . . . . . . . . . . . . # r g._ _ C * @ '.(.g 7._ ^ U ` . . . . . . . . . . . . . t G.4 [ E . .       ",
"      . . H.< I.s . . . . . Z m.J.'.. . . . . . , K.g._ _ C * @ '.3.g 7._ ^ L.x . . . . . . . . . . . . . . . M X : M.@ .       ",
"    '.. W N.^ 3 '.. . . . . 4.9 O.P.W . . . . + Q.< _ _ R.S.@ . $ q 7._ ^ L.x . . . . . . . . . . . . . . . . K u P C l . .     ",
"    + . T.U.V.$ . . . . . K W.X.Y.] Z.N . . . G.v._ _ ^ `.@ . K ).< _ ^ L.x . . . . . . . . . . . . . . . . . . M _.B k + .     ",
"  W . .  +6 e @ . . . . . K v .+: ++@+#+m.. . $+(.%+_ &+4 ,.+ K . *+R.z x . . . . . . . . . . . . . . . . . . . t N C 4 , . .   ",
"  '.. @ j.=+:.. . . . . . . v -+;+^ >+/ ,+# . K '+)+{ !+~+{+' + w t $.m.. . . . . . . . . . . . . . . . . . . . . M U *.1 . .   ",
"  + . s R.g $.. . . . . . . . ]+v ^+#.&+c./+(+. K '+- _+( ~+:+<+[+K K . . . . . . . . . . . . . . . . . . . . . . L }+( | + .   ",
"  . K (.e.U W . . . . . . . . . u |+1+A.&+++-.s . K =.2+3+( ~+_+4+'.. . . . . . . . . . . . . . . . . . . . . . . t x }.5+@ .   ",
"W . K Z.7.k + . . . . . . . . . . t 6+7+8+c.9+f l + K =.0+a+_ 9+[ * @ . . . . . . . . . . . . . . . . . . . . . . K b+g } , .   ",
"@ . c+d+e+& . . . . . . . . . . . . t =.+.f+!+~+..E + . M , j.7.Y.g+h+W . . . . . . . . . . . . . . . . . . . . . . v i+j+; . . ",
"@ . K j.k+T.. . . . . . . . . . . . . K l+m+n+!+~+o+p++ . M @ 9 6 ++q.Q.q+. . . . . . . . . . . . . . . . . . . . . w e < - . . ",
"@ . + {.G s . . . . . . . . . . . . . . K =.r+C.( ~+s+t+'.. w . u+p ++v+w+, . . . . . . . . . . . . . . . . . . . . v d p & . . ",
"'.. @ x+V.<.. . . . . . . . . . . . . . . K =.s y+_ 9+z+_.@ . v @.,+~.>+A+e B+. . . . . . . . . . . . . . . . . . . u C+_ * . . ",
"@ . W g g # . . . . . . . . . . . . . . . . . D+# P _ Y.E+a W . u w F+6.&+G+E.` . . . . . . . . . . . . . . . . . . t 7+( = . . ",
"@ . @ H+g # . . . . . . . . . . . . . . . . . . M W N.8.Y.I+1+N . u M ) J+c.Y.N.$ + . . . . . . . . . . . . . . . . t K+( = . . ",
"'.. L+M+s+B+. . . . . . . . . . . . . . . . . . . w + z p ++ .N+, . t =.O+P+!+Q+4 %.+ . . . . . . . . . . . . . . . t 3 D.* . . ",
"R+. u P R.s . . . . . . . . . . . . . . . . . . . . v t n @+>+B D 4.. -+'+(.R.!+~+S+T++ . . . . . . . . . . . . . . t U+^ & . . ",
"@ . w U g+T.. . . . . . . . . . . . . . . . . . . . . u v V+g.&+&+! $.. K 9.' W+( ~+g X+'.. . . . . . . . . . . . . K w.] - . . ",
"@ . v Y+Z+:.. . . . . . . . . . . . . . . . . . . . . . u M Z.}.c.`+9 R . K =.$ x+( ~+n+ @'.. . . . . . . . . . . . .@} { F . . ",
"W . u (.;.k + . . . . . . . . . . . . . . . . . . . . . . t =.P.+@c.9+@@,.+ K =.<.!._ 9+h.#@@ . . . . . . . . . . K $@j+y+> .   ",
"  . t $.*.%@W . . . . . . . . . . . . . . . . . . . . . . . t '+:.8 !+~+{+' + . M m.&@7.Y.*@=@W . . . . . . . . . K 4+^ ! @ .   ",
"  + K K O.-@$.. . . . . . . . . . . . . . . . . . . . . . + + K 9.;@B.( ~+:+<+>@. w ,@v.6 ++e+'@m.. . . . . . . . . D 6 ) + .   ",
"  '.. M )@7 t+. . . . . . . . . . . . . . . . . . . . . $.Z.=@!@K =.2 3+( ~+_+:.'.. w ~@d+^ >+{@]@, . . . . . . . # ^@5 ' . .   ",
"  ].. u %.~.p.@ . . . . . . . . . . . . . . . . . . . x /@_ (@N+'.K =.F C ( 9+-@R . . v u ]@b.>+;._@+ . . . . . . +.:@4 , . +   ",
"    + K t !.B.; . . . . . . . . . . . . . . . . . . x <@ ._ &+.+@ . '.[@U._ ( E+}@. . . u w d ] !+|@'.. . . . . W /@p 3 + .     ",
"    '.. M #@;.k '.. . . . . . . . . . . . . . . . x L.^ _ 7.C.X + @ S.R._ _ :@U+N . . . . t M ;@a R . . . . . . p+5 1@2+. .     ",
"      . t ,@/.q W.. . . . . . . . . . . . . . . x L.^ _ 7.2@(.'.@ S C _ _ :@K.J.. . . . . . K u K . . . . . . N U 6 D @ .       ",
"      + . D+a B '@'.. . . . . . . . . . . . . ` U ^ _ 7.g (.'.@ * C _ _ g.r # . . . . . . . . . . . . . . . + [@T A 1 . .       ",
"      W . t . {+R.1 . . . . . . . . . . . . $.U ^ _ D.g (.'.@ * C _ _ g.M.# . . . . . . . . . . . . . . . . s !.p 3@@ .         ",
"        + . M ;@#.9 # . . . . . . . . . . $.z ^ _ _ /.a.'.@ Y A _ _ g.n # . . . . . . . . . . . . . . . . 4@n Z+} F . .         ",
"          + K 6+Q D.`.W . . . . . . . . <.! 7 _ _ p d+3.X ) A _ _ q.n # . . . . . . . . . . . . . . . . @ C+*.5@* + .           ",
"          '.. u . 4 h Y '.. . . . . . . 6@~._ _ _ c.v+q.I+#._ _ q.p.i.. . . . . . . . . . . . . . . . '. @C ^ r N . .           ",
"            + . M <.7@8@)+'.. . . . . ]+|@7._ _ _ _ _ _ _ _ _ #.e 4.. . . . . . . . . . . . . . . . '.(.9@6 &.` . .             ",
"              + . =.%.z+1@t+'.. . . . ]+0@/@O.y+y+y+y+y+y+y+{+w+4.. . . . . . . . . . . . . . . . '.)+g 6 a@r+. .               ",
"              W . K =.' z+8@Y W . . . . w v + + + + + + + + '.'.. . . . . . . . . . . . . . . . W * b@6 {+' + . .               ",
"                @ . K =.%.7@h `.# . . . . . . . . . . . . . . . . . . . . . . . . . . . . . . 4.c@h.p 4 }@+ . .                 ",
"                  @ . K =.<.4 D.9 1 '.. . . . . . . . . . . . . . . . . . . . . . . . . . @ ).9 g.:@z F + . +                   ",
"                    @ . . M . Q #.R.'@W.'.. . . . . . . . . . . . . . . . . . . . . . '.s n.B.6 r. +# . . '.                    ",
"                      W + . u 6+;@{+;.q k ; @ . . . . . . . . . . . . . . . . . . @ $ 1+d@^ A.e@;@@ . + f@                      ",
"                          + . K M . _@/.B B.p.t+$.W + . . . . . . . . . . + W $.:.e V.^ 6.P [., . . +                           ",
"                            '.+ . t 6+,@#@!.~.7 -@U k :.T.s !@# # <.s T.& 3 U C.=+6 h.g@O # + . + @                             ",
"                                + . . t M t r+h@{.*.;.p g+R.s+C.C.s+G k+e.7.e+C i@1+j@W . . . '.                                ",
"                                  W + . . K ]+M c+u.(.d U P y+:+2@q {.@@k@l@m@n@R+. . . . + f@                                  ",
"                                        '.+ . . K t u v w u . @ W @ + K t K K . . . + '.                                        ",
"                                            f@'.+ . . . . . . . . . . . . . . + '.W                                             ",
"                                                    W @ o@o@'.@ @ '.@ @ @ W                                                     "};
