/* XPM */
static char * C:\Users\denton\Desktop\q\share\pixmaps\sierra16_xpm[] = {
"16 16 77 1",
" 	c None",
".	c #848688",
"+	c #737577",
"@	c #696A6C",
"#	c #686A6C",
"$	c #747577",
"%	c #808284",
"&	c #636566",
"*	c #5B5C5E",
"=	c #717274",
"-	c #797B7D",
";	c #7A7B7D",
">	c #757778",
",	c #646567",
"'	c #686A6B",
")	c #7B7C7E",
"!	c #4F5051",
"~	c #7E8082",
"{	c #7D7F81",
"]	c #5F6162",
"^	c #7A7C7E",
"/	c #818385",
"(	c #525354",
"_	c #7D7F80",
":	c #696B6C",
"<	c #2A2B2B",
"[	c #292A2B",
"}	c #858789",
"|	c #67696A",
"1	c #747678",
"2	c #6A6B6D",
"3	c #343435",
"4	c #6C6E6F",
"5	c #303031",
"6	c #787A7C",
"7	c #838587",
"8	c #555758",
"9	c #797A7C",
"0	c #444546",
"a	c #828485",
"b	c #3E3F40",
"c	c #6C6D6F",
"d	c #5E5F60",
"e	c #76787A",
"f	c #7B7D7F",
"g	c #656768",
"h	c #47484A",
"i	c #424244",
"j	c #757678",
"k	c #7C7D7F",
"l	c #3D3E3F",
"m	c #77797B",
"n	c #4E5051",
"o	c #6A6C6E",
"p	c #7F8082",
"q	c #7C7E80",
"r	c #3C3C3D",
"s	c #4F5052",
"t	c #808183",
"u	c #7F8183",
"v	c #424344",
"w	c #545556",
"x	c #606163",
"y	c #202121",
"z	c #86888A",
"A	c #626465",
"B	c #6F7072",
"C	c #727475",
"D	c #787A7B",
"E	c #2F3031",
"F	c #5F6062",
"G	c #3A3B3C",
"H	c #2B2B2C",
"I	c #2B2C2C",
"J	c #898B8D",
"K	c #8C8D90",
"L	c #565758",
"     .+@#$.     ",
"   %&*=-;>,'%   ",
"  )!-...~-{%]^  ",
" /(_...:<<[.}]% ",
" |1...23456..%' ",
"78.90abcde....,.",
"fg..=h{i1.....j$",
"{j...klmno....;#",
"pj....qrqs#...;@",
"tg.....uvjw]..=+",
"7x....e0)yzAB.*.",
" C1..DE432...-& ",
" zFq.GHI:..._s% ",
"  }F1JKJ...1()  ",
"   zCxgjjgL|/   ",
"     7%u{f7     "};
